<?xml version="1.0" standalone="no"?>
<!DOCTYPE svg PUBLIC "-//W3C//DTD SVG 20010904//EN"
 "http://www.w3.org/TR/2001/REC-SVG-20010904/DTD/svg10.dtd">
<svg version="1.0" xmlns="http://www.w3.org/2000/svg"
 width="512.000000pt" height="512.000000pt" viewBox="0 0 512.000000 512.000000"
 preserveAspectRatio="xMidYMid meet">

<g transform="translate(0.000000,512.000000) scale(0.100000,-0.100000)"
fill="#000000" stroke="none">
<path d="M2665 5106 c-22 -9 -98 -49 -168 -90 -205 -119 -422 -207 -642 -260
-157 -37 -464 -84 -638 -98 -225 -17 -503 7 -722 64 -156 40 -264 23 -354 -58
-100 -90 -124 -195 -137 -589 -19 -566 91 -1101 318 -1549 303 -595 805 -982
1447 -1115 55 -12 108 -21 119 -21 15 0 22 -12 32 -57 20 -89 87 -278 135
-381 184 -388 506 -715 891 -904 l106 -51 113 7 c187 10 395 56 580 128 661
256 1125 860 1304 1701 74 345 93 953 36 1119 -22 62 -85 133 -149 166 -67 34
-166 36 -331 3 -151 -29 -457 -40 -615 -22 -127 15 -335 52 -486 88 l-110 26
0 216 c0 296 -30 537 -100 816 -75 300 -216 667 -293 764 -47 59 -137 102
-224 107 -49 3 -85 0 -112 -10z m161 -165 c52 -24 70 -50 132 -196 132 -312
224 -656 263 -990 12 -108 18 -469 7 -480 -17 -18 -311 125 -481 234 -153 98
-235 112 -355 61 -80 -34 -123 -88 -200 -250 -108 -225 -177 -413 -237 -642
l-28 -107 -56 -8 c-87 -13 -299 -9 -376 6 -107 21 -228 65 -332 121 -51 27
-102 50 -113 50 -10 0 -31 -11 -46 -24 -37 -31 -35 -70 7 -171 126 -304 423
-518 751 -542 l88 -6 0 -66 c0 -82 18 -329 26 -355 6 -18 2 -19 -49 -13 -83
10 -287 72 -407 123 -221 95 -401 216 -571 384 -181 180 -289 333 -410 585
-136 282 -214 565 -261 945 -17 138 -16 590 1 740 15 136 35 189 82 217 57 34
81 35 226 2 369 -82 637 -87 1082 -19 403 62 700 159 978 320 195 114 202 116
279 81z m-215 -1534 c30 -19 90 -56 135 -84 160 -101 376 -197 571 -253 134
-40 463 -106 618 -125 137 -17 408 -20 540 -5 50 6 142 20 206 32 69 12 130
18 151 14 44 -8 95 -57 108 -104 17 -63 24 -413 11 -587 -42 -550 -197 -1009
-472 -1400 -83 -117 -288 -322 -409 -408 -114 -80 -339 -195 -469 -238 -124
-41 -302 -77 -420 -85 l-96 -7 -85 43 c-326 163 -602 436 -769 760 -153 297
-215 573 -215 955 0 357 56 660 190 1032 50 139 153 370 188 424 50 75 131 88
217 36z m-1289 -958 c131 -42 218 -54 396 -54 147 0 172 -2 172 -15 -1 -12
-27 -207 -29 -217 -2 -7 -95 -1 -162 11 -86 16 -175 49 -256 97 -90 54 -261
231 -197 204 11 -4 45 -16 76 -26z"/>
<path d="M2273 4049 c-79 -13 -157 -46 -221 -93 -115 -85 -152 -165 -99 -214
40 -38 73 -29 141 37 134 128 260 148 447 71 83 -35 118 -37 150 -11 28 23 31
81 5 109 -23 26 -188 89 -267 102 -72 11 -83 11 -156 -1z"/>
<path d="M970 3841 c-81 -26 -130 -54 -214 -122 -81 -65 -96 -84 -96 -121 1
-44 53 -84 95 -74 13 3 56 33 97 66 112 92 144 105 264 105 98 0 104 -1 173
-37 85 -45 104 -46 136 -13 24 24 31 57 19 90 -11 27 -88 73 -167 100 -94 31
-222 34 -307 6z"/>
<path d="M2565 2600 c-11 -13 -19 -36 -19 -57 0 -32 8 -44 60 -91 85 -78 168
-130 247 -154 125 -37 296 -14 398 55 63 43 65 115 4 144 -35 17 -36 16 -106
-18 -66 -31 -79 -34 -163 -34 -110 0 -156 20 -259 114 -58 52 -73 61 -106 61
-26 0 -44 -7 -56 -20z"/>
<path d="M3765 2365 c-38 -37 -33 -75 18 -137 55 -69 151 -133 239 -159 102
-31 230 -23 351 21 100 37 132 66 123 115 -7 35 -39 65 -70 65 -12 0 -62 -14
-112 -31 -77 -26 -100 -30 -169 -26 -102 5 -160 33 -237 116 -65 70 -100 80
-143 36z"/>
<path d="M3040 1405 c-181 -49 -348 -183 -428 -344 -51 -101 -55 -149 -16
-180 36 -29 50 -27 146 19 128 61 192 75 348 75 156 0 221 -14 345 -74 101
-48 189 -114 261 -197 51 -58 60 -64 94 -64 30 0 43 6 60 28 20 25 22 36 18
122 -14 273 -199 517 -458 602 -85 28 -288 35 -370 13z m296 -159 c86 -23 170
-74 234 -143 50 -53 100 -127 100 -147 0 -3 -26 11 -57 31 -83 53 -186 98
-283 124 -71 20 -110 23 -240 23 -97 0 -171 -4 -199 -12 -23 -8 -45 -11 -48
-9 -10 11 132 101 195 123 79 28 215 32 298 10z"/>
</g>
</svg>
