<svg id="visual" viewBox="0 0 900 600" width="900" height="600" xmlns="http://www.w3.org/2000/svg" xmlns:xlink="http://www.w3.org/1999/xlink" version="1.1"><rect x="0" y="0" width="900" height="600" fill="#fff"></rect><path d="M0 339L15 348.2C30 357.3 60 375.7 90 384.2C120 392.7 150 391.3 180 381.8C210 372.3 240 354.7 270 348.8C300 343 330 349 360 359.2C390 369.3 420 383.7 450 390.2C480 396.7 510 395.3 540 391.3C570 387.3 600 380.7 630 372.5C660 364.3 690 354.7 720 351.7C750 348.7 780 352.3 810 356.2C840 360 870 364 885 366L900 368L900 601L885 601C870 601 840 601 810 601C780 601 750 601 720 601C690 601 660 601 630 601C600 601 570 601 540 601C510 601 480 601 450 601C420 601 390 601 360 601C330 601 300 601 270 601C240 601 210 601 180 601C150 601 120 601 90 601C60 601 30 601 15 601L0 601Z" fill="#f0f0f0"></path><path d="M0 392L15 398C30 404 60 416 90 414.2C120 412.3 150 396.7 180 390.8C210 385 240 389 270 396.2C300 403.3 330 413.7 360 411.8C390 410 420 396 450 398.5C480 401 510 420 540 420C570 420 600 401 630 400.7C660 400.3 690 418.7 720 426.2C750 433.7 780 430.3 810 431.5C840 432.7 870 438.3 885 441.2L900 444L900 601L885 601C870 601 840 601 810 601C780 601 750 601 720 601C690 601 660 601 630 601C600 601 570 601 540 601C510 601 480 601 450 601C420 601 390 601 360 601C330 601 300 601 270 601C240 601 210 601 180 601C150 601 120 601 90 601C60 601 30 601 15 601L0 601Z" fill="#c6c6c6"></path><path d="M0 463L15 462C30 461 60 459 90 461.2C120 463.3 150 469.7 180 470.7C210 471.7 240 467.3 270 459.5C300 451.7 330 440.3 360 439.2C390 438 420 447 450 451.3C480 455.7 510 455.3 540 451.3C570 447.3 600 439.7 630 435C660 430.3 690 428.7 720 432C750 435.3 780 443.7 810 449.8C840 456 870 460 885 462L900 464L900 601L885 601C870 601 840 601 810 601C780 601 750 601 720 601C690 601 660 601 630 601C600 601 570 601 540 601C510 601 480 601 450 601C420 601 390 601 360 601C330 601 300 601 270 601C240 601 210 601 180 601C150 601 120 601 90 601C60 601 30 601 15 601L0 601Z" fill="#9e9e9e"></path><path d="M0 480L15 482.7C30 485.3 60 490.7 90 488.5C120 486.3 150 476.7 180 475C210 473.3 240 479.7 270 485.3C300 491 330 496 360 497C390 498 420 495 450 494.8C480 494.7 510 497.3 540 499.3C570 501.3 600 502.7 630 502C660 501.3 690 498.7 720 495.3C750 492 780 488 810 490C840 492 870 500 885 504L900 508L900 601L885 601C870 601 840 601 810 601C780 601 750 601 720 601C690 601 660 601 630 601C600 601 570 601 540 601C510 601 480 601 450 601C420 601 390 601 360 601C330 601 300 601 270 601C240 601 210 601 180 601C150 601 120 601 90 601C60 601 30 601 15 601L0 601Z" fill="#787878"></path><path d="M0 525L15 522.8C30 520.7 60 516.3 90 514C120 511.7 150 511.3 180 511.8C210 512.3 240 513.7 270 512.8C300 512 330 509 360 513.8C390 518.7 420 531.3 450 533.5C480 535.7 510 527.3 540 524.8C570 522.3 600 525.7 630 524.5C660 523.3 690 517.7 720 514.2C750 510.7 780 509.3 810 512.7C840 516 870 524 885 528L900 532L900 601L885 601C870 601 840 601 810 601C780 601 750 601 720 601C690 601 660 601 630 601C600 601 570 601 540 601C510 601 480 601 450 601C420 601 390 601 360 601C330 601 300 601 270 601C240 601 210 601 180 601C150 601 120 601 90 601C60 601 30 601 15 601L0 601Z" fill="#545454"></path><path d="M0 538L15 539C30 540 60 542 90 544.7C120 547.3 150 550.7 180 552C210 553.3 240 552.7 270 550.7C300 548.7 330 545.3 360 546.2C390 547 420 552 450 553.8C480 555.7 510 554.3 540 555.5C570 556.7 600 560.3 630 558.8C660 557.3 690 550.7 720 550.5C750 550.3 780 556.7 810 556C840 555.3 870 547.7 885 543.8L900 540L900 601L885 601C870 601 840 601 810 601C780 601 750 601 720 601C690 601 660 601 630 601C600 601 570 601 540 601C510 601 480 601 450 601C420 601 390 601 360 601C330 601 300 601 270 601C240 601 210 601 180 601C150 601 120 601 90 601C60 601 30 601 15 601L0 601Z" fill="#333333"></path></svg>