<svg id="visual" viewBox="0 0 900 600" width="900" height="600" xmlns="http://www.w3.org/2000/svg" xmlns:xlink="http://www.w3.org/1999/xlink" version="1.1"><path d="M0 241L18.8 221C37.7 201 75.3 161 112.8 156C150.3 151 187.7 181 225.2 204C262.7 227 300.3 243 337.8 230C375.3 217 412.7 175 450.2 160C487.7 145 525.3 157 562.8 172C600.3 187 637.7 205 675.2 218C712.7 231 750.3 239 787.8 240C825.3 241 862.7 235 881.3 232L900 229L900 0L881.3 0C862.7 0 825.3 0 787.8 0C750.3 0 712.7 0 675.2 0C637.7 0 600.3 0 562.8 0C525.3 0 487.7 0 450.2 0C412.7 0 375.3 0 337.8 0C300.3 0 262.7 0 225.2 0C187.7 0 150.3 0 112.8 0C75.3 0 37.7 0 18.8 0L0 0Z" fill="#333333"></path><path d="M0 319L18.8 326C37.7 333 75.3 347 112.8 354C150.3 361 187.7 361 225.2 364C262.7 367 300.3 373 337.8 367C375.3 361 412.7 343 450.2 336C487.7 329 525.3 333 562.8 337C600.3 341 637.7 345 675.2 362C712.7 379 750.3 409 787.8 413C825.3 417 862.7 395 881.3 384L900 373L900 227L881.3 230C862.7 233 825.3 239 787.8 238C750.3 237 712.7 229 675.2 216C637.7 203 600.3 185 562.8 170C525.3 155 487.7 143 450.2 158C412.7 173 375.3 215 337.8 228C300.3 241 262.7 225 225.2 202C187.7 179 150.3 149 112.8 154C75.3 159 37.7 199 18.8 219L0 239Z" fill="#6c6c6c"></path><path d="M0 463L18.8 472C37.7 481 75.3 499 112.8 513C150.3 527 187.7 537 225.2 536C262.7 535 300.3 523 337.8 508C375.3 493 412.7 475 450.2 467C487.7 459 525.3 461 562.8 470C600.3 479 637.7 495 675.2 507C712.7 519 750.3 527 787.8 518C825.3 509 862.7 483 881.3 470L900 457L900 371L881.3 382C862.7 393 825.3 415 787.8 411C750.3 407 712.7 377 675.2 360C637.7 343 600.3 339 562.8 335C525.3 331 487.7 327 450.2 334C412.7 341 375.3 359 337.8 365C300.3 371 262.7 365 225.2 362C187.7 359 150.3 359 112.8 352C75.3 345 37.7 331 18.8 324L0 317Z" fill="#acacac"></path><path d="M0 601L18.8 601C37.7 601 75.3 601 112.8 601C150.3 601 187.7 601 225.2 601C262.7 601 300.3 601 337.8 601C375.3 601 412.7 601 450.2 601C487.7 601 525.3 601 562.8 601C600.3 601 637.7 601 675.2 601C712.7 601 750.3 601 787.8 601C825.3 601 862.7 601 881.3 601L900 601L900 455L881.3 468C862.7 481 825.3 507 787.8 516C750.3 525 712.7 517 675.2 505C637.7 493 600.3 477 562.8 468C525.3 459 487.7 457 450.2 465C412.7 473 375.3 491 337.8 506C300.3 521 262.7 533 225.2 534C187.7 535 150.3 525 112.8 511C75.3 497 37.7 479 18.8 470L0 461Z" fill="#f0f0f0"></path></svg>