<svg id="visual" viewBox="0 0 960 540" width="960" height="540" xmlns="http://www.w3.org/2000/svg" xmlns:xlink="http://www.w3.org/1999/xlink" version="1.1"><rect x="0" y="0" width="960" height="540" fill="#333"></rect><path d="M0 211L160 211L320 190L480 186L640 209L800 152L960 124L960 541L800 541L640 541L480 541L320 541L160 541L0 541Z" fill="#acacac"></path><path d="M0 183L160 170L320 161L480 248L640 211L800 192L960 173L960 541L800 541L640 541L480 541L320 541L160 541L0 541Z" fill="#b2b2b2"></path><path d="M0 169L160 220L320 266L480 202L640 237L800 151L960 260L960 541L800 541L640 541L480 541L320 541L160 541L0 541Z" fill="#b8b8b8"></path><path d="M0 292L160 190L320 258L480 280L640 256L800 277L960 249L960 541L800 541L640 541L480 541L320 541L160 541L0 541Z" fill="#bebebe"></path><path d="M0 240L160 331L320 320L480 326L640 237L800 313L960 328L960 541L800 541L640 541L480 541L320 541L160 541L0 541Z" fill="#c4c4c4"></path><path d="M0 344L160 305L320 357L480 357L640 283L800 347L960 312L960 541L800 541L640 541L480 541L320 541L160 541L0 541Z" fill="#cacaca"></path><path d="M0 306L160 315L320 311L480 338L640 303L800 298L960 338L960 541L800 541L640 541L480 541L320 541L160 541L0 541Z" fill="#d0d0d0"></path><path d="M0 354L160 355L320 359L480 334L640 400L800 340L960 334L960 541L800 541L640 541L480 541L320 541L160 541L0 541Z" fill="#d6d6d6"></path><path d="M0 388L160 423L320 393L480 391L640 411L800 396L960 403L960 541L800 541L640 541L480 541L320 541L160 541L0 541Z" fill="#dddddd"></path><path d="M0 438L160 424L320 464L480 434L640 438L800 422L960 449L960 541L800 541L640 541L480 541L320 541L160 541L0 541Z" fill="#e3e3e3"></path><path d="M0 475L160 452L320 459L480 470L640 460L800 464L960 474L960 541L800 541L640 541L480 541L320 541L160 541L0 541Z" fill="#eaeaea"></path><path d="M0 480L160 486L320 510L480 485L640 518L800 490L960 489L960 541L800 541L640 541L480 541L320 541L160 541L0 541Z" fill="#f0f0f0"></path></svg>